<svg width="24" height="24" viewBox="0 0 24 24" fill="none" xmlns="http://www.w3.org/2000/svg">
  <path
    d="M6.78454 2.00012C6.53295 2.00405 6.2932 2.10764 6.1179 2.28815C5.94261 2.46866 5.84609 2.71135 5.84953 2.96295V3.91279H4.89969C3.86145 3.91279 3 4.77424 3 5.81248V19.1103C3 20.1486 3.86145 21.01 4.89969 21.01H18.1975C19.2358 21.01 20.0972 20.1486 20.0972 19.1103V5.81248C20.0972 4.77424 19.2358 3.91279 18.1975 3.91279H17.2477V2.96295C17.2494 2.83587 17.2256 2.70973 17.1777 2.59201C17.1299 2.47428 17.0588 2.36737 16.9689 2.27758C16.8789 2.1878 16.7719 2.11699 16.6541 2.06933C16.5362 2.02167 16.4101 1.99813 16.283 2.00012C16.0314 2.00405 15.7916 2.10764 15.6164 2.28815C15.4411 2.46866 15.3445 2.71135 15.348 2.96295V3.91279H7.74922V2.96295C7.75096 2.83587 7.72719 2.70973 7.6793 2.59201C7.63141 2.47428 7.56039 2.36737 7.47044 2.27758C7.38048 2.1878 7.27343 2.11699 7.15561 2.06933C7.0378 2.02167 6.91161 1.99813 6.78454 2.00012ZM4.89969 8.66202H18.1975V19.1103H4.89969V8.66202ZM12.4984 12.4614C11.9741 12.4614 11.5486 12.8869 11.5486 13.4112V16.2608C11.5486 16.7851 11.9741 17.2106 12.4984 17.2106H15.348C15.8723 17.2106 16.2978 16.7851 16.2978 16.2608V13.4112C16.2978 12.8869 15.8723 12.4614 15.348 12.4614H12.4984Z"
    fill="#000000" />
</svg>